<?xml version="1.0" standalone="no"?>
<!DOCTYPE svg PUBLIC "-//W3C//DTD SVG 20010904//EN"
 "http://www.w3.org/TR/2001/REC-SVG-20010904/DTD/svg10.dtd">
<svg version="1.0" xmlns="http://www.w3.org/2000/svg"
 width="260.000000pt" height="260.000000pt" viewBox="0 0 260.000000 260.000000"
 preserveAspectRatio="xMidYMid meet">
<metadata>
Created by potrace 1.11, written by Peter Selinger 2001-2013
</metadata>
<g transform="translate(0.000000,260.000000) scale(0.100000,-0.100000)"
fill="#000000" stroke="none">
<path d="M0 1300 l0 -1300 1300 0 1300 0 0 1300 0 1300 -1300 0 -1300 0 0
-1300z m1080 172 c0 -296 -4 -490 -11 -528 -24 -133 -99 -232 -216 -286 -53
-25 -81 -32 -157 -35 -148 -8 -277 33 -380 121 l-40 33 58 81 c31 45 60 84 65
86 4 3 24 -8 43 -24 123 -101 259 -114 349 -33 66 59 69 84 69 495 l0 358
-210 0 -210 0 0 100 0 100 320 0 320 0 0 -468z m1220 363 l0 -105 -325 0 -325
0 0 -180 0 -180 290 0 290 0 0 -100 0 -100 -290 0 -290 0 0 -270 0 -270 -110
0 -110 0 0 655 0 655 435 0 435 0 0 -105z"/>
</g>
</svg>
