<?xml version="1.0" standalone="no"?>
<!DOCTYPE svg PUBLIC "-//W3C//DTD SVG 20010904//EN"
 "http://www.w3.org/TR/2001/REC-SVG-20010904/DTD/svg10.dtd">
<svg version="1.0" xmlns="http://www.w3.org/2000/svg"
 width="260.000000pt" height="260.000000pt" viewBox="0 0 260.000000 260.000000"
 preserveAspectRatio="xMidYMid meet">
<metadata>
Created by potrace 1.11, written by Peter Selinger 2001-2013
</metadata>
<g transform="translate(0.000000,260.000000) scale(0.100000,-0.100000)"
fill="#000000" stroke="none">
<path d="M0 1300 l0 -1300 1300 0 1300 0 0 1300 0 1300 -1300 0 -1300 0 0
-1300z m1079 636 c9 -11 11 -141 9 -508 -4 -545 -2 -534 -71 -642 -134 -212
-487 -235 -706 -47 l-44 38 62 86 c34 48 65 88 69 91 4 2 33 -16 65 -40 57
-43 136 -74 186 -74 85 0 170 61 190 137 8 27 10 159 9 395 l-3 353 -200 5
-200 5 -3 94 c-1 52 -1 100 2 108 8 20 618 19 635 -1z m1219 2 c17 -17 16
-192 -1 -207 -9 -7 -115 -12 -323 -13 l-309 -3 0 -165 0 -165 285 -5 285 -5 0
-105 0 -105 -285 -5 -285 -5 -5 -265 -5 -265 -104 -3 c-67 -2 -108 1 -117 9
-12 10 -14 116 -14 653 0 486 3 645 12 654 17 17 849 17 866 0z"/>
</g>
</svg>
